<svg xmlns="http://www.w3.org/2000/svg" xmlns:xlink="http://www.w3.org/1999/xlink" fill="none" version="1.1" width="19.002197690243428" height="19.000000424667533" viewBox="0 0 19.002197690243428 19.000000424667533"><g transform="matrix(1,-2.2348338291067193e-8,2.2348338291067193e-8,1,-9.490613681893007e-15,0)"><path d="M4.5022,9.000000424667533C2.01692,9.000000424667533,0.00219727,6.985280424667533,0.00219727,4.500000424667533C0.00219727,2.0147204246675328,2.01692,4.2466753269465585e-7,4.5022,4.2466753269465585e-7C6.98748,4.2466753269465585e-7,9.0022,2.0147204246675328,9.0022,4.500000424667533C9.0022,6.985280424667533,6.98748,9.000000424667533,4.5022,9.000000424667533ZM4.5022,19.000000424667533C2.01606,19.001200424667534,0,16.986100424667534,0,14.500000424667533C0,12.013900424667533,2.01606,9.998790424667533,4.5022,10.000000424667533C6.98662,10.001200424667534,9,12.015600424667532,9,14.500000424667533C9,16.984400424667534,6.98662,18.998800424667532,4.5022,19.000000424667533ZM14.5022,9.000000424667533C12.0169,9.000000424667533,10.0022,6.985280424667533,10.0022,4.500000424667533C10.0022,2.0147204246675328,12.0169,4.2466753269465585e-7,14.5022,4.2466753269465585e-7C16.9875,4.2466753269465585e-7,19.0022,2.0147204246675328,19.0022,4.500000424667533C19.0022,6.985280424667533,16.9875,9.000000424667533,14.5022,9.000000424667533ZM14.5022,19.000000424667533C12.0161,19.001200424667534,10,16.986100424667534,10,14.500000424667533C10,12.013900424667533,12.0161,9.998790424667533,14.5022,10.000000424667533C16.9866,10.001200424667534,19,12.015600424667532,19,14.500000424667533C19,16.984400424667534,16.9866,18.998800424667532,14.5022,19.000000424667533Z" fill="#FFFFFF" fill-opacity="1"/></g></svg>