<svg xmlns="http://www.w3.org/2000/svg" xmlns:xlink="http://www.w3.org/1999/xlink" fill="none" version="1.1" width="106.69454431561783" height="106.69542932536369" viewBox="0 0 106.69454431561783 106.69542932536369"><g transform="matrix(1,-2.2348338291067193e-8,2.2348338291067193e-8,1,-5.3288399507467074e-14,0)"><path d="M0.717496,62.04100238444571C-0.239165,56.28500238444571,-0.239165,50.410502384445714,0.717496,44.65440238444572C6.59483,44.793002384445714,11.8748,41.97700238444571,13.9282,37.02240238444571C15.9815,32.06240238444571,14.2375,26.334402384445717,9.9815,22.286402384445715C13.3757,17.53590238444572,17.5312,13.378602384445717,22.2802,9.982382384445716C26.3335,14.238402384445717,32.0615,15.982402384445717,37.0215,13.929002384445717C41.9815,11.875702384445717,44.7922,6.590382384445716,44.6482,0.7183833844457165C50.4077,-0.23945761555428358,56.2859,-0.23945761555428358,62.0455,0.7183833844457165C61.9015,6.595712384445717,64.7175,11.875702384445717,69.6722,13.929002384445717C74.6322,15.982402384445717,80.3602,14.238402384445717,84.4082,9.982382384445716C89.1586,13.376602384445716,93.3159,17.532102384445714,96.7122,22.281002384445713C92.4562,26.334402384445717,90.7122,32.06240238444571,92.7655,37.02240238444571C94.8188,41.98240238444571,100.104,44.793002384445714,105.976,44.649002384445716C106.934,50.408602384445715,106.934,56.286802384445714,105.976,62.04640238444571C100.099,61.902402384445715,94.8188,64.71840238444572,92.7655,69.67300238444572C90.7122,74.63310238444572,92.4562,80.36110238444572,96.7122,84.40910238444572C93.318,89.15950238444572,89.1625,93.31680238444572,84.4135,96.71310238444572C80.3602,92.45710238444572,74.6322,90.71310238444572,69.6722,92.76640238444573C64.7122,94.81970238444572,61.9015,100.10500238444573,62.0455,105.97700238444573C56.2859,106.93500238444572,50.4077,106.93500238444572,44.6482,105.97700238444573C44.7922,100.10000238444572,41.9762,94.81970238444572,37.0215,92.76640238444573C32.0615,90.71310238444572,26.3335,92.45710238444572,22.2855,96.71310238444572C17.535,93.31880238444572,13.3778,89.16340238444572,9.9815,84.41440238444572C14.2375,80.36110238444572,15.9815,74.63310238444572,13.9282,69.67300238444572C11.8748,64.71310238444572,6.5895,61.902402384445715,0.717498,62.04640238444571L0.717496,62.04100238444571ZM53.3468,69.34770238444572C62.1834,69.34770238444572,69.3468,62.184302384445715,69.3468,53.34770238444572C69.3468,44.51120238444572,62.1834,37.34770238444572,53.3468,37.34770238444572C44.5103,37.34770238444572,37.3468,44.51120238444572,37.3468,53.34770238444572C37.3468,62.184302384445715,44.5103,69.34770238444572,53.3468,69.34770238444572Z" fill="#D8D8D8" fill-opacity="1"/></g></svg>